<?xml version="1.0" encoding="UTF-8"?>
<svg id="uuid-fcf273ba-5051-48f6-b372-942abdd0a6da" data-name="Calque 1" xmlns="http://www.w3.org/2000/svg" viewBox="0 0 957 654">
  <circle cx="46" cy="45" r="45" style="fill: #4d4d4d;"/>
  <rect x="114" y="11" width="430" height="21" rx="10.5" ry="10.5" style="fill: #4d4d4d;"/>
  <rect x="114" y="45" width="663" height="21" rx="10.5" ry="10.5" style="fill: #4d4d4d;"/>
  <rect x="114" y="80" width="554" height="21" rx="10.5" ry="10.5" style="fill: #4d4d4d;"/>
  <rect x="114" y="115" width="770" height="21" rx="10.5" ry="10.5" style="fill: #4d4d4d;"/>
  <circle cx="46" cy="220" r="45" style="fill: #4d4d4d;"/>
  <rect x="114" y="186" width="809" height="21" rx="10.5" ry="10.5" style="fill: #4d4d4d;"/>
  <rect x="114" y="220" width="775" height="21" rx="10.5" ry="10.5" style="fill: #4d4d4d;"/>
  <rect x="114" y="255" width="729" height="21" rx="10.5" ry="10.5" style="fill: #4d4d4d;"/>
  <rect x="114" y="290" width="803" height="21" rx="10.5" ry="10.5" style="fill: #4d4d4d;"/>
  <circle cx="46" cy="391" r="45" style="fill: #4d4d4d;"/>
  <rect x="114" y="357" width="101" height="21" rx="10.5" ry="10.5" style="fill: #4d4d4d;"/>
  <rect x="114" y="391" width="309" height="21" rx="10.5" ry="10.5" style="fill: #4d4d4d;"/>
  <rect x="114" y="426" width="246" height="21" rx="10.5" ry="10.5" style="fill: #4d4d4d;"/>
  <rect x="114" y="461" width="663" height="21" rx="10.5" ry="10.5" style="fill: #4d4d4d;"/>
  <circle cx="45" cy="563" r="45" style="fill: #4d4d4d;"/>
  <rect x="113" y="529" width="844" height="21" rx="10.5" ry="10.5" style="fill: #4d4d4d;"/>
  <rect x="113" y="563" width="770" height="21" rx="10.5" ry="10.5" style="fill: #4d4d4d;"/>
  <rect x="113" y="598" width="417" height="21" rx="10.5" ry="10.5" style="fill: #4d4d4d;"/>
  <rect x="113" y="633" width="274" height="21" rx="10.5" ry="10.5" style="fill: #4d4d4d;"/>
</svg>